<svg xmlns="http://www.w3.org/2000/svg" width="164.217" height="164.793" viewBox="0 0 164.217 164.793">
  <g id="Group_6306" data-name="Group 6306" transform="translate(-87.213 -161.671)">
    <path id="Path_35365" data-name="Path 35365" d="M5.1,83.284C-18.823,34.144,45.795-46.265,106.83,34.144c9.46,12.464,14.119,23.424,15.178,33.15C127.587,118.484,25.323,124.807,5.1,83.284Z" transform="translate(251.429 237.072) rotate(133)" fill="#b8c8dc" opacity="0.19"/>
    <path id="Path_49242" data-name="Path 49242" d="M51.916,0c28.672,0,51.916.376,51.916.839s-23.243.839-51.916.839S0,1.3,0,.839,23.243,0,51.916,0Z" transform="translate(114.475 293.481)" fill="#a5a5a5" opacity="0.31"/>
    <g id="Group_12326" data-name="Group 12326" transform="translate(133.226 205.861)">
      <path id="Path_35513" data-name="Path 35513" d="M184.821,90.453a11.534,11.534,0,0,0-5.631.606,5.759,5.759,0,0,0-2.983,2.56c-.59,1.029-.949,2.154-1.452,3.222-.981,2.106-3.534,2.146-5.2,3.478a4.8,4.8,0,0,0-1.292,1.563,4.508,4.508,0,0,0-.4,2.241,2.791,2.791,0,0,1-1.2,2.7,15.87,15.87,0,0,0-1.683,1.2c-4.275,3.374-4.858,10.322.144,13.584a7.838,7.838,0,0,0,8.3.1,11,11,0,0,0,4.164-5.017Z" transform="translate(-139.661 -89.138)" fill="#ff7c83"/>
      <path id="Path_35514" data-name="Path 35514" d="M183.376,121.477l-.83-.128c-.215-.032-.439-.064-.654-.08-5.376-.518-10.3,3.9-11.446,9.125-.088.391-5.081,25.2-5.927,32,4.124,6.206,26.705,9.747,27.479,8.351,5.631-10.1,1.173-36.923,1.173-36.923.718-5.942-3.223-11.047-9.2-12.252Z" transform="translate(-140.259 -95.386)" fill="#f76262"/>
      <g id="Group_6282" data-name="Group 6282" transform="translate(0 64.215)">
        <g id="Group_6280" data-name="Group 6280" transform="translate(58.75 18.938)">
          <g id="Group_6272" data-name="Group 6272">
            <path id="Path_35515" data-name="Path 35515" d="M219.519,199.748l-8.216-.223a3.183,3.183,0,0,1-3.414-3.3h0c.056-2.01,1.715-3.2,3.725-3.143l7.594.271c2.01.056,4.06,1.284,4,3.286h0C223.157,198.639,221.529,199.8,219.519,199.748Z" transform="translate(-207.785 -193.078)" fill="#1a2242"/>
            <path id="Path_35516" data-name="Path 35516" d="M211.206,199.533a3.377,3.377,0,0,1-3.446-3.326,3.285,3.285,0,0,1,3.557-3.127l7.849.471c1.914.056,3.853,1.212,3.8,3.071-.048,1.795-1.444,2.959-3.478,2.9Z" transform="translate(-207.759 -193.078)" fill="#1a2242"/>
          </g>
          <path id="Path_35517" data-name="Path 35517" d="M222.27,193.7l-.16,5.95.3.008c2.026.056,3.422-1.109,3.478-2.9C225.923,194.96,224.12,193.828,222.27,193.7Z" transform="translate(-210.663 -193.204)" fill="#e9ffff"/>
          <g id="Group_6279" data-name="Group 6279" transform="translate(6.183 0.8)">
            <g id="Group_6275" data-name="Group 6275">
              <g id="Group_6273" data-name="Group 6273" transform="translate(0.112)">
                <path id="Path_35518" data-name="Path 35518" d="M215.65,194.487a.415.415,0,1,1,.407.423A.4.4,0,0,1,215.65,194.487Z" transform="translate(-215.65 -194.08)" fill="#1a2242"/>
                <path id="Path_35519" data-name="Path 35519" d="M217.81,194.547a.415.415,0,1,1,.407.423A.407.407,0,0,1,217.81,194.547Z" transform="translate(-216.087 -194.092)" fill="#1a2242"/>
                <path id="Path_35520" data-name="Path 35520" d="M219.97,194.607a.415.415,0,1,1,.407.423A.407.407,0,0,1,219.97,194.607Z" transform="translate(-216.524 -194.104)" fill="#1a2242"/>
              </g>
              <g id="Group_6274" data-name="Group 6274" transform="translate(0 4.044)">
                <path id="Path_35521" data-name="Path 35521" d="M215.51,199.557a.415.415,0,1,1,.407.423A.417.417,0,0,1,215.51,199.557Z" transform="translate(-215.51 -199.15)" fill="#1a2242"/>
                <path id="Path_35522" data-name="Path 35522" d="M217.67,199.617a.415.415,0,1,1,.407.423A.417.417,0,0,1,217.67,199.617Z" transform="translate(-215.947 -199.162)" fill="#1a2242"/>
                <path id="Path_35523" data-name="Path 35523" d="M219.83,199.677a.415.415,0,1,1,.407.423A.417.417,0,0,1,219.83,199.677Z" transform="translate(-216.384 -199.174)" fill="#1a2242"/>
              </g>
            </g>
            <g id="Group_6278" data-name="Group 6278" transform="translate(0.183 0.263)">
              <g id="Group_6276" data-name="Group 6276" transform="translate(0.128)">
                <path id="Path_35524" data-name="Path 35524" d="M217.966,198.749l-.439-.016L215.9,194.41l.431.008Z" transform="translate(-215.9 -194.41)" fill="#cae1e1"/>
                <path id="Path_35525" data-name="Path 35525" d="M220.156,198.809l-.439-.016-1.627-4.323.439.008Z" transform="translate(-216.343 -194.422)" fill="#cae1e1"/>
              </g>
              <g id="Group_6277" data-name="Group 6277" transform="translate(0 0)">
                <rect id="Rectangle_2662" data-name="Rectangle 2662" width="0.439" height="4.283" transform="translate(0.117 0) rotate(1.57)" fill="#e9ffff"/>
                <rect id="Rectangle_2663" data-name="Rectangle 2663" width="0.439" height="4.283" transform="translate(1.865 0.047) rotate(1.57)" fill="#e9ffff"/>
                <rect id="Rectangle_2664" data-name="Rectangle 2664" width="0.439" height="4.283" transform="translate(3.612 0.095) rotate(1.57)" fill="#e9ffff"/>
              </g>
            </g>
          </g>
        </g>
        <g id="Group_6281" data-name="Group 6281" transform="translate(0 0)">
          <path id="Path_35526" data-name="Path 35526" d="M185.5,193.173l.223-8.12s-27.942-18.418-47.8-15.379a4.509,4.509,0,0,0-3.047,1.954h0a4.479,4.479,0,0,0,.152,5.257C138.775,181.663,150.437,190.78,185.5,193.173Z" transform="translate(-134.104 -169.336)" fill="#6b6f7e"/>
          <path id="Path_35527" data-name="Path 35527" d="M202.688,191.45l7.386,2.632a2.006,2.006,0,0,1,1.332,1.946h0a2.013,2.013,0,0,1-2.066,1.954l-6.7-.183Z" transform="translate(-147.973 -173.81)" fill="#f5dcc6"/>
          <rect id="Rectangle_2665" data-name="Rectangle 2665" width="3.43" height="10.218" transform="translate(51.5 15.056) rotate(1.57)" fill="#e2101b"/>
        </g>
      </g>
      <g id="Group_6293" data-name="Group 6293" transform="translate(2.239 61.59)">
        <g id="Group_6291" data-name="Group 6291" transform="translate(0 21.304)">
          <g id="Group_6283" data-name="Group 6283">
            <path id="Path_35528" data-name="Path 35528" d="M140.755,199.8l8.2-.606a3.2,3.2,0,0,0,3.262-3.462h0c-.152-2-1.859-3.111-3.869-2.967l-7.578.622c-2,.152-4,1.468-3.853,3.47h0C137.07,198.869,138.753,199.954,140.755,199.8Z" transform="translate(-136.911 -192.754)" fill="#1a2242"/>
            <path id="Path_35529" data-name="Path 35529" d="M149.073,199.214a3.383,3.383,0,0,0,3.294-3.478,3.289,3.289,0,0,0-3.7-2.959l-7.817.838c-1.906.144-3.8,1.4-3.661,3.246.136,1.787,1.579,2.9,3.605,2.744Z" transform="translate(-136.966 -192.757)" fill="#1a2242"/>
          </g>
          <path id="Path_35530" data-name="Path 35530" d="M140.65,193.86l.439,5.935-.3.024c-2.026.152-3.47-.949-3.605-2.744S138.807,194.067,140.65,193.86Z" transform="translate(-136.965 -192.978)" fill="#e9ffff"/>
          <g id="Group_6290" data-name="Group 6290" transform="translate(4.752 0.961)">
            <g id="Group_6286" data-name="Group 6286">
              <g id="Group_6284" data-name="Group 6284">
                <path id="Path_35531" data-name="Path 35531" d="M148.019,194.343a.416.416,0,1,0-.383.447A.419.419,0,0,0,148.019,194.343Z" transform="translate(-143.743 -193.959)" fill="#1a2242"/>
                <path id="Path_35532" data-name="Path 35532" d="M145.859,194.5a.416.416,0,1,0-.383.447A.413.413,0,0,0,145.859,194.5Z" transform="translate(-143.306 -193.991)" fill="#1a2242"/>
                <path id="Path_35533" data-name="Path 35533" d="M143.7,194.663a.416.416,0,1,0-.383.447A.413.413,0,0,0,143.7,194.663Z" transform="translate(-142.869 -194.023)" fill="#1a2242"/>
              </g>
              <g id="Group_6285" data-name="Group 6285" transform="translate(0.303 4.028)">
                <path id="Path_35534" data-name="Path 35534" d="M148.389,199.393a.416.416,0,1,0-.383.447A.413.413,0,0,0,148.389,199.393Z" transform="translate(-144.121 -199.009)" fill="#1a2242"/>
                <path id="Path_35535" data-name="Path 35535" d="M146.229,199.553a.416.416,0,1,0-.383.447A.413.413,0,0,0,146.229,199.553Z" transform="translate(-143.684 -199.041)" fill="#1a2242"/>
                <path id="Path_35536" data-name="Path 35536" d="M144.079,199.713a.416.416,0,1,0-.383.447A.419.419,0,0,0,144.079,199.713Z" transform="translate(-143.249 -199.073)" fill="#1a2242"/>
              </g>
            </g>
            <g id="Group_6289" data-name="Group 6289" transform="translate(0.142 0.246)">
              <g id="Group_6287" data-name="Group 6287" transform="translate(0.314 0.003)">
                <path id="Path_35537" data-name="Path 35537" d="M145.63,198.7l.439-.032,1.428-4.4-.439.032Z" transform="translate(-143.883 -194.27)" fill="#cae1e1"/>
                <path id="Path_35538" data-name="Path 35538" d="M143.44,198.865l.439-.04,1.428-4.4-.439.032Z" transform="translate(-143.44 -194.302)" fill="#cae1e1"/>
              </g>
              <g id="Group_6288" data-name="Group 6288" transform="translate(0 0)">
                <rect id="Rectangle_2666" data-name="Rectangle 2666" width="0.439" height="4.283" transform="translate(4.239 4.272) rotate(175.779)" fill="#e9ffff"/>
                <rect id="Rectangle_2667" data-name="Rectangle 2667" width="0.439" height="4.283" transform="translate(2.503 4.403) rotate(175.791)" fill="#e9ffff"/>
                <rect id="Rectangle_2668" data-name="Rectangle 2668" width="0.439" height="4.283" transform="translate(0.753 4.524) rotate(175.779)" fill="#e9ffff"/>
              </g>
            </g>
          </g>
        </g>
        <g id="Group_6292" data-name="Group 6292" transform="translate(10.722 0)">
          <path id="Path_35539" data-name="Path 35539" d="M165.378,191.749l-.6-8.1s26.315-14.063,47.029-17.572c1.244-.207,2.385.8,3.135,1.811h0a4.479,4.479,0,0,1,.1,5.257C211.522,178.094,200.291,187.737,165.378,191.749Z" transform="translate(-153.272 -166.046)" fill="#6b6f7e"/>
          <path id="Path_35540" data-name="Path 35540" d="M158.862,190.7l-7.259,2.975a2.01,2.01,0,0,0-1.244,2.01h0a2.011,2.011,0,0,0,2.154,1.858l6.684-.495Z" transform="translate(-150.353 -171.034)" fill="#f5dcc6"/>
          <rect id="Rectangle_2669" data-name="Rectangle 2669" width="3.43" height="10.218" transform="translate(12.34 27.132) rotate(175.779)" fill="#e2101b"/>
        </g>
      </g>
      <path id="Path_35541" data-name="Path 35541" d="M186.14,180.764a24.952,24.952,0,0,0-3.111-4.068,1.4,1.4,0,0,1-.112-.1,44.624,44.624,0,0,1-4.874,3.063.238.238,0,0,1-.064-.032c-.048-.024-.1-.04-.152-.064s-.1-.04-.144-.056l-.168-.048c-.048-.016-.1-.024-.144-.04s-.12-.016-.176-.032a.88.88,0,0,0-.144-.016,1.6,1.6,0,0,0-.2-.008.774.774,0,0,0-.136,0,2.1,2.1,0,0,0-.223.016.6.6,0,0,1-.12.008,3.047,3.047,0,0,0-.351.072,4.169,4.169,0,0,0-.9.359,3.515,3.515,0,0,0-.79.574c-.048.048-.08.1-.12.144a1.493,1.493,0,0,0-.271.455,2.183,2.183,0,0,0-.088.455l-.6.447c-2.377,1.755,2.465,7.211,5.177,5.264l1.181-.885c.128-.088.247-.175.375-.279l.175-.128a1.328,1.328,0,0,0,.183-.183,3.278,3.278,0,0,0,.79-1.053,1.761,1.761,0,0,0,.064-.973A45.12,45.12,0,0,0,186.14,180.764Z" transform="translate(-141.898 -106.591)" fill="#f5dcc6"/>
      <g id="Group_6294" data-name="Group 6294" transform="translate(39.392 30.829)">
        <path id="Path_35542" data-name="Path 35542" d="M194.583,127.48l-1.42,11.789c2.816,4.339,4.81,8.742,3.972,12.89-.3,1.2-4.089,4.857-8.674,8.968-2.408,2.16-5.259,4.618-7.662,6.666a9.475,9.475,0,0,0,5.823,5.552c6.078-5.432,17.979-13.927,19.247-19.917C207.633,145.124,200.989,134.667,194.583,127.48Z" transform="translate(-180.8 -127.48)" fill="#f76262"/>
      </g>
      <path id="Path_35544" data-name="Path 35544" d="M193.685,101.8A9.253,9.253,0,0,0,187.4,90.476a9.4,9.4,0,0,0-11.6,6.581c-.487,1.771-1.061,3.853-1.619,5.879a8.482,8.482,0,0,0,5.927,10.433l.335.088-.877,3.2a4.185,4.185,0,0,0,2.919,5.145h0a4.185,4.185,0,0,0,5.145-2.919l1.5-5.44a46.1,46.1,0,0,1,3.773-9.683A9.346,9.346,0,0,0,193.685,101.8Z" transform="translate(-142.152 -89.088)" fill="#f5dcc6"/>
      <path id="Path_35546" data-name="Path 35546" d="M199.685,116.724a16.224,16.224,0,0,0-.83-1.89,2.794,2.794,0,0,1,.351-2.935,4.543,4.543,0,0,0,.806-2.13c.128-1.866-.973-3.183-1.97-4.626-1.691-2.457-.215-5.225-.638-7.961-.758-4.937-6.948-8.08-11.494-8.335A10.617,10.617,0,0,0,175.26,96.6l-.511,1.859,13.528,3.717a3.818,3.818,0,0,0,.391.12l-4.251,15.419a10.983,10.983,0,0,0,1.005,6.437,7.845,7.845,0,0,0,7.171,4.164C198.568,128.075,201.623,121.805,199.685,116.724Z" transform="translate(-142.329 -88.831)" fill="#6c6c6c"/>
      <g id="Group_6305" data-name="Group 6305" transform="translate(6.43 1.547)">
        <g id="Group_6296" data-name="Group 6296" transform="translate(0 7.856)">
          <path id="Path_35547" data-name="Path 35547" d="M155.927,100.62c-.439.965-1.476,4.7-1.787,5.512a22.349,22.349,0,0,0,4.22,1.452c1.452-1.436,2.736-3.143,4.052-4.7C160.218,102.223,158.064,101.442,155.927,100.62Z" transform="translate(-144.589 -100.62)" fill="#f5dcc6"/>
          <g id="Group_6295" data-name="Group 6295" transform="translate(0 4.036)">
            <path id="Path_35548" data-name="Path 35548" d="M157.668,108.193c-1.89,2.935-8.4,15.6-7.937,18.912.471,3.342,4.291,3.47,7.171,2.465,2.074-.726,10.848-6.5,12.228-8.24l-4.251,14.493c-.343.479-6.006,3.238-9.971,3.326a14.113,14.113,0,0,1-9.309-3.191c-2.983-2.5-3.773-5.871-3.31-9.644a34.67,34.67,0,0,1,3-9.755,87.205,87.205,0,0,1,5.424-10.058c.04-.064.479-.83.5-.822Z" transform="translate(-142.166 -105.68)" fill="#f76262"/>
          </g>
        </g>
        <g id="Group_6299" data-name="Group 6299" transform="translate(28.912 10.861)">
          <g id="Group_6298" data-name="Group 6298">
            <g id="Group_6297" data-name="Group 6297">
              <path id="Path_35549" data-name="Path 35549" d="M182.63,106.83c-.088-2.05-2.664-3.342-4.156-1.691-.215.239.183.534.4.3,1.236-1.372,3.2-.08,3.262,1.476C182.151,107.229,182.646,107.149,182.63,106.83Z" transform="translate(-178.412 -104.387)" fill="#303d58"/>
            </g>
          </g>
        </g>
        <g id="Group_6304" data-name="Group 6304" transform="translate(9.083 0)">
          <g id="Group_6301" data-name="Group 6301">
            <path id="Path_35550" data-name="Path 35550" d="M160.546,91.05l13.313,7.705a2.973,2.973,0,0,1,1.539,2.409,2.86,2.86,0,0,1-.048.678,3.051,3.051,0,0,1-3.717,2.3l-13.664-3.119Z" transform="translate(-154.447 -90.827)" fill="#ffa4a0"/>
            <g id="Group_6300" data-name="Group 6300">
              <path id="Path_35551" data-name="Path 35551" d="M161.479,97.327c-1.053,2.7-3.581,4.228-5.639,3.422s-2.88-3.645-1.827-6.341,3.581-4.228,5.639-3.422S162.532,94.639,161.479,97.327Z" transform="translate(-153.553 -90.771)" fill="#fff"/>
              <path id="Path_35552" data-name="Path 35552" d="M156.324,100.222c-1.659-.646-2.281-3.039-1.388-5.328s2.975-3.621,4.626-2.975,2.281,3.039,1.388,5.328S157.983,100.868,156.324,100.222Z" transform="translate(-153.75 -90.97)" fill="#aacaec"/>
              <path id="Path_35553" data-name="Path 35553" d="M156.6,100.25c-1.571-.614-2.146-2.9-1.284-5.1s2.832-3.486,4.4-2.872,2.146,2.9,1.284,5.1S158.174,100.864,156.6,100.25Z" transform="translate(-153.829 -91.046)" fill="#b9d4ef"/>
              <path id="Path_35554" data-name="Path 35554" d="M159.187,92.2a3.006,3.006,0,0,0-.917.3l2.7,6.166a5.347,5.347,0,0,0,.582-1.005C160.775,95.837,159.969,94.019,159.187,92.2Z" transform="translate(-154.507 -91.06)" fill="#c1d9f1"/>
              <path id="Path_35555" data-name="Path 35555" d="M158.878,100.2a3.944,3.944,0,0,0,1.236-.861l-2.784-6.357a4.857,4.857,0,0,0-1.1,1.173C157.107,96.171,157.993,98.181,158.878,100.2Z" transform="translate(-154.095 -91.218)" fill="#c1d9f1"/>
            </g>
          </g>
          <path id="Path_35556" data-name="Path 35556" d="M170.991,94.884a6.028,6.028,0,0,0-7.681-3.143,4.2,4.2,0,0,1,2.114,3.167.58.58,0,0,0,.925.359,3.86,3.86,0,0,1,3.374-.7C170.194,94.685,171.223,95.371,170.991,94.884Z" transform="translate(-155.527 -90.881)" fill="#f5dcc6"/>
          <g id="Group_6303" data-name="Group 6303" transform="translate(2.135 1.14)">
            <path id="Path_35557" data-name="Path 35557" d="M169,94.35l13.313,7.705a2.973,2.973,0,0,1,1.539,2.409,2.861,2.861,0,0,1-.048.678,3.051,3.051,0,0,1-3.717,2.3l-13.664-3.119Z" transform="translate(-158.292 -92.635)" fill="#ffa4a0"/>
            <g id="Group_6302" data-name="Group 6302">
              <path id="Path_35558" data-name="Path 35558" d="M169.939,100.637c-1.053,2.7-3.581,4.228-5.639,3.422s-2.88-3.645-1.827-6.341,3.581-4.228,5.639-3.422S170.992,97.941,169.939,100.637Z" transform="translate(-157.4 -92.581)" fill="#fff"/>
              <path id="Path_35559" data-name="Path 35559" d="M164.774,103.522c-1.659-.646-2.281-3.039-1.388-5.328s2.967-3.621,4.626-2.975,2.281,3.039,1.388,5.328S166.433,104.168,164.774,103.522Z" transform="translate(-157.596 -92.778)" fill="#aacaec"/>
              <path id="Path_35560" data-name="Path 35560" d="M165.1,103.424c-1.563-.614-2.146-2.864-1.308-5.025s2.8-3.414,4.363-2.808,2.146,2.864,1.308,5.025S166.664,104.03,165.1,103.424Z" transform="translate(-157.683 -92.855)" fill="#b9d4ef"/>
              <path id="Path_35561" data-name="Path 35561" d="M158.878,100.2a3.944,3.944,0,0,0,1.236-.861l-2.784-6.357a4.857,4.857,0,0,0-1.1,1.173C157.107,96.171,157.993,98.181,158.878,100.2Z" transform="translate(-156.23 -92.358)" fill="#c1d9f1"/>
              <path id="Path_35562" data-name="Path 35562" d="M159.187,92.2a3.006,3.006,0,0,0-.917.3l2.7,6.166a5.347,5.347,0,0,0,.582-1.005C160.775,95.837,159.969,94.019,159.187,92.2Z" transform="translate(-156.643 -92.2)" fill="#c1d9f1"/>
              <path id="Path_35563" data-name="Path 35563" d="M163.875,99.07c-.008.024-.024.048-.032.072a5.52,5.52,0,0,0-.3,1.085q.873,1.986,1.739,3.98a2.37,2.37,0,0,0,.885.1Z" transform="translate(-157.709 -93.59)" fill="#c1d9f1"/>
              <path id="Path_35564" data-name="Path 35564" d="M167.437,95.54a3.2,3.2,0,0,0-.917.367l2.728,6.238a5.492,5.492,0,0,0,.646-1Z" transform="translate(-158.312 -92.876)" fill="#c1d9f1"/>
              <path id="Path_35565" data-name="Path 35565" d="M165.575,96.45a5.017,5.017,0,0,0-1.165,1.364l2.56,5.839a3.733,3.733,0,0,0,1.4-.846Z" transform="translate(-157.885 -93.06)" fill="#c1d9f1"/>
            </g>
          </g>
        </g>
      </g>
    </g>
    <g id="Vector_Smart_Object" data-name="Vector Smart Object" transform="translate(134.248 211.588)" opacity="0.21">
      <g id="Vector_Smart_Object-2" data-name="Vector Smart Object" transform="translate(0 0)">
        <path id="Path_103" data-name="Path 103" d="M2611.581,4790.777l2.526,2.759,1.09-3.6,1.092-3.6-3.617.84-3.617.84Z" transform="translate(-2609.055 -4786.338)" fill="none" stroke="#7966fe" stroke-linecap="round" stroke-linejoin="round" stroke-width="1.5"/>
      </g>
    </g>
    <g id="Vector_Smart_Object-3" data-name="Vector Smart Object" transform="translate(205.316 249.256)" opacity="0.17">
      <g id="Vector_Smart_Object-4" data-name="Vector Smart Object" transform="translate(0 0)">
        <path id="Path_103-2" data-name="Path 103" d="M2612.08,4791.653l3.026,3.3,1.305-4.309,1.307-4.311-4.331,1.006-4.332,1.006Z" transform="translate(-2609.055 -4786.338)" fill="none" stroke="#7966fe" stroke-linecap="round" stroke-linejoin="round" stroke-width="1.5"/>
      </g>
    </g>
    <g id="Vector_Smart_Object-5" data-name="Vector Smart Object" transform="translate(118.035 239.062)" opacity="0.31">
      <g id="Vector_Smart_Object-6" data-name="Vector Smart Object" transform="translate(0 0)">
        <path id="Path_113" data-name="Path 113" d="M44.548,293.711a2.515,2.515,0,1,1-2.515-2.515A2.515,2.515,0,0,1,44.548,293.711Z" transform="translate(-39.518 -291.197)" fill="none" stroke="#ecc31f" stroke-linecap="round" stroke-linejoin="round" stroke-width="1"/>
      </g>
    </g>
    <g id="Vector_Smart_Object-7" data-name="Vector Smart Object" transform="translate(211.856 210.802)" opacity="0.31">
      <g id="Vector_Smart_Object-8" data-name="Vector Smart Object" transform="translate(0 0)">
        <path id="Path_113-2" data-name="Path 113" d="M44.548,293.711a2.515,2.515,0,1,1-2.515-2.515A2.515,2.515,0,0,1,44.548,293.711Z" transform="translate(-39.518 -291.197)" fill="none" stroke="#ecc31f" stroke-linecap="round" stroke-linejoin="round" stroke-width="1"/>
      </g>
    </g>
    <g id="Group_1723" data-name="Group 1723" transform="translate(194.469 194.207) rotate(-43)" opacity="0.22">
      <path id="Path_396" data-name="Path 396" d="M2.562,0C2.562,1.445,0,1.2,0,3.039" transform="translate(0 9.117)" fill="none" stroke="#7966fe" stroke-linecap="round" stroke-linejoin="round" stroke-width="1.5"/>
      <path id="Path_397" data-name="Path 397" d="M2.562,0C2.562,1.445,0,1.2,0,3.039" transform="translate(0 3.039)" fill="none" stroke="#7966fe" stroke-linecap="round" stroke-linejoin="round" stroke-width="1.5"/>
      <path id="Path_398" data-name="Path 398" d="M2.562,3.039C2.562,1.594,0,1.843,0,0" transform="translate(0 6.078)" fill="none" stroke="#7966fe" stroke-linecap="round" stroke-linejoin="round" stroke-width="1.5"/>
      <path id="Path_399" data-name="Path 399" d="M0,0" transform="translate(0 0)" fill="none" stroke="#7966fe" stroke-linecap="round" stroke-linejoin="round" stroke-width="1.5"/>
      <path id="Path_400" data-name="Path 400" d="M2.562,3.039C2.562,1.594,0,1.843,0,0" transform="translate(0 0)" fill="none" stroke="#7966fe" stroke-linecap="round" stroke-linejoin="round" stroke-width="1.5"/>
    </g>
    <g id="Group_6215" data-name="Group 6215" transform="translate(137.461 262.842) rotate(-43)" opacity="0.11">
      <path id="Path_396-2" data-name="Path 396" d="M2.139,0C2.139,1.206,0,1,0,2.538" transform="translate(0 7.613)" fill="none" stroke="#7966fe" stroke-linecap="round" stroke-linejoin="round" stroke-width="1.5"/>
      <path id="Path_397-2" data-name="Path 397" d="M2.139,0C2.139,1.206,0,1,0,2.538" transform="translate(0 2.538)" fill="none" stroke="#7966fe" stroke-linecap="round" stroke-linejoin="round" stroke-width="1.5"/>
      <path id="Path_398-2" data-name="Path 398" d="M2.139,2.538C2.139,1.331,0,1.539,0,0" transform="translate(0 5.075)" fill="none" stroke="#7966fe" stroke-linecap="round" stroke-linejoin="round" stroke-width="1.5"/>
      <path id="Path_399-2" data-name="Path 399" d="M0,0" transform="translate(0 0)" fill="none" stroke="#7966fe" stroke-linecap="round" stroke-linejoin="round" stroke-width="1.5"/>
      <path id="Path_400-2" data-name="Path 400" d="M2.139,2.538C2.139,1.331,0,1.539,0,0" transform="translate(0 0)" fill="none" stroke="#7966fe" stroke-linecap="round" stroke-linejoin="round" stroke-width="1.5"/>
    </g>
  </g>
</svg>
